<?xml version="1.0" standalone="no"?><!DOCTYPE svg PUBLIC "-//W3C//DTD SVG 1.1//EN" "http://www.w3.org/Graphics/SVG/1.1/DTD/svg11.dtd"><svg width="100%" height="100%" viewBox="0 0 1378 436" version="1.1" xmlns="http://www.w3.org/2000/svg" xmlns:xlink="http://www.w3.org/1999/xlink" xml:space="preserve" style="fill-rule:evenodd;clip-rule:evenodd;stroke-linejoin:round;stroke-miterlimit:1.41421;"><g><path d="M229.336,211.831c0,13.207 -0.726,24.963 -2.177,35.268c-1.452,10.305 -3.375,19.122 -5.769,26.451c-2.395,7.33 -5.661,13.607 -9.797,18.832c-4.137,5.225 -8.491,9.434 -13.063,12.627c-4.571,3.193 -10.087,5.696 -16.545,7.51c-6.459,1.815 -12.845,3.012 -19.158,3.593c-6.314,0.58 -13.679,0.87 -22.097,0.87l-86.429,0l0,113.425l-43.976,0l0,-324.381l117.56,0c13.498,0 24.927,0.545 34.289,1.633c9.361,1.089 18.033,3.084 26.016,5.987c7.982,2.903 14.368,6.821 19.158,11.756c4.789,4.935 8.925,11.393 12.409,19.376c3.483,7.982 5.914,17.38 7.293,28.193c1.379,10.812 2.141,23.766 2.286,38.86ZM185.359,209.436c-0.145,-10.45 -0.435,-18.94 -0.87,-25.471c-0.436,-6.531 -1.27,-12.7 -2.504,-18.505c-1.234,-5.806 -2.83,-10.232 -4.79,-13.28c-1.959,-3.048 -4.644,-5.697 -8.055,-7.946c-3.41,-2.25 -7.402,-3.738 -11.973,-4.463c-4.572,-0.726 -10.269,-1.089 -17.09,-1.089l-85.776,0l0,145.427l76.85,0c11.32,0 20.537,-0.943 27.648,-2.83c7.112,-1.887 12.664,-5.044 16.655,-9.47c3.991,-4.427 6.676,-9.616 8.055,-15.566c1.379,-5.951 2.068,-13.643 2.068,-23.077c0,-2.322 -0.036,-6.096 -0.109,-11.321c-0.072,-5.225 -0.109,-9.361 -0.109,-12.409Z" style="fill:#dddad0;fill-rule:nonzero;"/><rect x="287.028" y="106.026" width="44.194" height="324.38" style="fill:#dddad0;fill-rule:nonzero;"/><path d="M692.783,430.407l-63.117,0l-92.117,-167.745l-91.833,167.745l-62.833,0l121.97,-217.784l-116,-205.842l61.696,0l87,158.078l87.568,-158.078l61.696,0l-115.716,205.842l121.686,217.784Z" style="fill:#dddad0;fill-rule:nonzero;"/><path d="M922.309,139.553l-133.888,0l0,105.804l114.077,0l0,35.269l-114.077,0l0,149.781l-44.195,0l0,-324.381l173.729,0l4.354,33.527Z" style="fill:#d72bf5;fill-rule:nonzero;"/><rect x="971.728" y="106.026" width="44.194" height="324.38" style="fill:#d72bf5;fill-rule:nonzero;"/><path d="M1377.48,430.407l-63.118,0l-92.117,-167.745l-91.833,167.745l-62.833,0l121.97,-217.784l-115.999,-205.842l61.696,0l86.999,158.078l87.568,-158.078l61.696,0l-115.715,205.842l121.686,217.784Z" style="fill:#d72bf5;fill-rule:nonzero;"/></g></svg>